<?xml version="1.0" encoding="UTF-8"?><svg xmlns="http://www.w3.org/2000/svg" xmlns:xlink="http://www.w3.org/1999/xlink" viewBox="0 0 87.93 66.94"><defs><style>.n{fill:url(#e);}.o{fill:url(#d);}.p{fill:url(#g);}.q{fill:url(#f);}.r{fill:url(#i);}.s{fill:url(#h);}.t{fill:url(#k);}.u{fill:url(#j);}.v{fill:url(#m);}.w{fill:url(#l);}.x{fill:#003161;}.y{fill:#fff;}.a`{isolation:isolate;}.aa{mix-blend-mode:multiply;opacity:.3;}</style><linearGradient id="d" x1="773.11" y1="599.42" x2="773.11" y2="633.42" gradientTransform="translate(-771.66 -595.89)" gradientUnits="userSpaceOnUse"><stop offset="0" stop-color="#3e3f40"/><stop offset=".08" stop-color="#6a6c6e"/><stop offset=".27" stop-color="#d9dadb"/><stop offset=".28" stop-color="#d6d7d8"/><stop offset=".37" stop-color="#a4a6a7"/><stop offset=".41" stop-color="#a8a8a8"/><stop offset=".49" stop-color="#8e8e8e"/><stop offset=".68" stop-color="#747577"/><stop offset=".7" stop-color="#707172"/><stop offset=".74" stop-color="#686868"/><stop offset=".82" stop-color="#939393"/><stop offset=".93" stop-color="#5b5b5b"/><stop offset="1" stop-color="#373839"/></linearGradient><linearGradient id="e" x1="816.19" y1="599.42" x2="816.19" y2="633.42" xlink:href="#d"/><linearGradient id="f" x1="-1158.88" y1="-55.35" x2="-1139.37" y2="-55.35" gradientTransform="translate(1160.77 76.08)" gradientUnits="userSpaceOnUse"><stop offset="0" stop-color="#373839"/><stop offset=".07" stop-color="#5b5b5b"/><stop offset=".18" stop-color="#939393"/><stop offset=".26" stop-color="#686868"/><stop offset=".3" stop-color="#707072"/><stop offset=".32" stop-color="#747577"/><stop offset=".51" stop-color="#8e8e8e"/><stop offset=".59" stop-color="#a8a8a8"/><stop offset=".63" stop-color="#a4a6a7"/><stop offset=".72" stop-color="#d5d6d7"/><stop offset=".73" stop-color="#d9dadb"/><stop offset=".92" stop-color="#6a6c6e"/><stop offset="1" stop-color="#3e3f40"/></linearGradient><linearGradient id="g" y1="-32.8" y2="-32.8" gradientTransform="translate(1183.33 53.52)" xlink:href="#f"/><linearGradient id="h" x1="-1171.16" y1="-48.53" x2="-1128.44" y2="-48.53" gradientTransform="translate(1168.27 69.93)" xlink:href="#d"/><linearGradient id="i" x1="-1171.16" y1="-39.54" x2="-1128.44" y2="-39.54" gradientTransform="translate(1177.26 60.94)" xlink:href="#d"/><radialGradient id="j" cx="-993.74" cy="12.21" fx="-993.74" fy="12.21" r="7.8" gradientTransform="translate(67 1052.14) rotate(90) scale(1 -1)" gradientUnits="userSpaceOnUse"><stop offset=".45" stop-color="#00abfa"/><stop offset=".77" stop-color="#0075be"/><stop offset=".91" stop-color="#005b97"/><stop offset="1" stop-color="#005b97" stop-opacity="0"/></radialGradient><radialGradient id="k" cx="-995.64" cy="9.92" fx="-995.64" fy="9.92" r="5.03" gradientTransform="translate(67 1052.14) rotate(90) scale(1 -1)" gradientUnits="userSpaceOnUse"><stop offset=".1" stop-color="#fff" stop-opacity=".9"/><stop offset=".18" stop-color="#fbffff" stop-opacity=".9"/><stop offset=".23" stop-color="#f1ffff" stop-opacity=".91"/><stop offset=".28" stop-color="#dfffff" stop-opacity=".91"/><stop offset=".33" stop-color="#c7ffff" stop-opacity=".92"/><stop offset=".37" stop-color="#a7ffff" stop-opacity=".93"/><stop offset=".41" stop-color="#7fffff" stop-opacity=".95"/><stop offset=".45" stop-color="#51ffff" stop-opacity=".97"/><stop offset=".49" stop-color="#1cffff" stop-opacity=".99"/><stop offset=".51" stop-color="aqua"/><stop offset="1" stop-color="#00a4da" stop-opacity="0"/></radialGradient><linearGradient id="l" x1="-996.4" y1="-23.01" x2="-990.88" y2="-23.01" gradientTransform="translate(1037.64 35.49) scale(1 -1)" gradientUnits="userSpaceOnUse"><stop offset="0" stop-color="#3e3f40"/><stop offset=".08" stop-color="#6a6c6e"/><stop offset=".27" stop-color="#d9dadb"/><stop offset=".28" stop-color="#d5d6d7"/><stop offset=".37" stop-color="#a4a6a7"/><stop offset=".41" stop-color="#a8a8a8"/><stop offset=".49" stop-color="#8e8e8e"/><stop offset=".68" stop-color="#747577"/><stop offset=".7" stop-color="#707072"/><stop offset=".74" stop-color="#686868"/><stop offset=".82" stop-color="#939393"/><stop offset=".93" stop-color="#5b5b5b"/><stop offset="1" stop-color="#373839"/></linearGradient><linearGradient id="m" x1="-999.87" y1="-50.21" x2="-999.87" y2="-37.96" gradientTransform="translate(67 1052.14) rotate(90) scale(1 -1)" xlink:href="#l"/></defs><g class="a`"><g id="a"/><g id="b"><g id="c"><g><g><rect class="o" x=".11" y="3.53" width="2.67" height="34"/><path class="y" d="M1.63,3.53l-1.52,.04,.04-.04c.11,4.87,.12,9.74-.04,14.61C0,14.49-.02,10.84,.02,7.19c.05-1.21-.06-2.55,.09-3.69l1.52,.04h0Z"/><rect class="n" x="43.19" y="3.53" width="2.67" height="34"/><path class="y" d="M44.71,3.53l-1.52,.04,.04-.04c.11,4.87,.12,9.74-.04,14.61-.12-3.65-.14-7.3-.09-10.96,.05-1.21-.06-2.55,.09-3.69l1.52,.04h0Z"/><rect class="q" x="1.89" y="12.08" width="19.51" height="17.29" transform="translate(-9.08 32.37) rotate(-90)"/><rect class="p" x="24.45" y="12.08" width="19.51" height="17.29" transform="translate(13.48 54.93) rotate(-90)"/><rect class="s" x="-2.89" y="17.07" width="42.72" height="8.67" transform="translate(-2.93 39.87) rotate(-90)"/><rect class="r" x="6.1" y="17.07" width="42.72" height="8.67" transform="translate(6.06 48.86) rotate(-90)"/><path class="aa" d="M12.84,30.48c-7.14,0-9.22-18.73-8.02-19.45H2.79V30.48H12.84Z"/><path class="aa" d="M41.94,30.48c-7.14,0-9.22-18.73-8.02-19.45h-2.04V30.48h10.05Z"/><path class="y" d="M15.66,.04l-1.52,.04c.15,1.89,.04,4.27,.09,6.32,.03,6.16,.03,12.95-.09,19.08-.12-6.12-.13-12.92-.09-19.08,.02-2.13,0-4.26,.06-6.4h.03l1.52,.04h0Z"/></g><g><g><circle class="x" cx="79.5" cy="58.5" r="8.44"/><circle class="u" cx="79.21" cy="58.4" r="7.8"/><circle class="t" cx="76.92" cy="56.5" r="5.03"/></g><path class="w" d="M41.92,30.3h4.14c.38,0,.69,.31,.69,.69v54.65c0,.58-.47,1.05-1.05,1.05h-3.42c-.58,0-1.05-.47-1.05-1.05V30.99c0-.38,.31-.69,.69-.69Z" transform="translate(102.49 14.51) rotate(90)"/><path class="v" d="M29.04,63.83v-20.97c0-.77-.39-1.49-1.05-1.89-1.42-.88-3.39-1.34-5.04-1.34s-3.53,.38-5.13,1.37c-.65,.4-1.03,1.12-1.03,1.88v20.95c0,.61,.49,1.1,1.1,1.1h10.05c.61,0,1.1-.49,1.1-1.1Z"/></g></g></g></g></g></svg>