<?xml version="1.0" encoding="UTF-8"?><svg xmlns="http://www.w3.org/2000/svg" xmlns:xlink="http://www.w3.org/1999/xlink" viewBox="0 0 99.99 51.37"><defs><style>.aa{fill:url(#u);}.ab{fill:url(#t);}.ac{fill:url(#v);}.ad{fill:url(#e);}.ae{fill:url(#d);}.af{fill:url(#g);}.ag{fill:url(#f);}.ah{fill:url(#p);}.ai{fill:url(#o);}.aj{fill:url(#s);}.ak{fill:url(#q);}.al{fill:url(#r);}.am{fill:url(#i);}.an{fill:url(#h);}.ao{fill:url(#k);}.ap{fill:url(#j);}.aq{fill:url(#m);}.ar{fill:url(#l);}.as{fill:url(#n);}.at{fill:url(#x);}.au{fill:url(#w);}.av{fill:url(#y);}.aw{fill:url(#a`);}.ax{fill:#ededed;}.ay{fill:#fff;}.b`{fill:#2186f4;}.ba{isolation:isolate;}.bb{mix-blend-mode:multiply;opacity:.3;}</style><linearGradient id="d" x1="-116.59" y1="-256.15" x2="-116.59" y2="-240.85" gradientTransform="translate(-80.67 -215.68) rotate(-180)" gradientUnits="userSpaceOnUse"><stop offset="0" stop-color="#6a6c6e"/><stop offset=".03" stop-color="#3e3f40"/><stop offset=".32" stop-color="#d9dadb"/><stop offset=".33" stop-color="#d5d6d7"/><stop offset=".48" stop-color="#a4a6a7"/><stop offset=".54" stop-color="#a8a8a8"/><stop offset=".59" stop-color="#8e8e8e"/><stop offset=".68" stop-color="#747577"/><stop offset=".7" stop-color="#707072"/><stop offset=".74" stop-color="#686868"/><stop offset=".82" stop-color="#939393"/><stop offset=".93" stop-color="#5b5b5b"/><stop offset="1" stop-color="#373839"/></linearGradient><linearGradient id="e" x1="180.02" y1="2126.16" x2="180.02" y2="2154.26" gradientTransform="translate(2176.13 230.05) rotate(-90) scale(1 -1)" gradientUnits="userSpaceOnUse"><stop offset="0" stop-color="#3e3f40"/><stop offset=".08" stop-color="#6a6c6e"/><stop offset=".27" stop-color="#d9dadb"/><stop offset=".28" stop-color="#d6d7d8"/><stop offset=".37" stop-color="#a4a6a7"/><stop offset=".41" stop-color="#a8a8a8"/><stop offset=".49" stop-color="#8e8e8e"/><stop offset=".68" stop-color="#747577"/><stop offset=".7" stop-color="#707172"/><stop offset=".74" stop-color="#686868"/><stop offset=".82" stop-color="#939393"/><stop offset=".93" stop-color="#5b5b5b"/><stop offset="1" stop-color="#373839"/></linearGradient><linearGradient id="f" x1="115.62" y1="-531.06" x2="115.62" y2="-515.76" gradientTransform="translate(151.56 -509.36) rotate(-180)" xlink:href="#d"/><linearGradient id="g" x1="2692.76" y1="353.3" x2="2692.76" y2="381.4" gradientTransform="translate(2763.22 -353.3) rotate(-180) scale(1 -1)" xlink:href="#e"/><linearGradient id="h" x1="2761.81" y1="353.3" x2="2761.81" y2="381.4" gradientTransform="translate(2763.22 -353.3) rotate(-180) scale(1 -1)" xlink:href="#e"/><linearGradient id="i" x1="115.77" y1="-537.46" x2="115.77" y2="-509.36" gradientTransform="translate(151.56 -509.36) rotate(-180)" xlink:href="#d"/><linearGradient id="j" x1="-1424.51" y1="-2926.58" x2="-1424.51" y2="-2904.81" gradientTransform="translate(2951.49 -1398.34) rotate(-90)" gradientUnits="userSpaceOnUse"><stop offset="0" stop-color="#6a6c6e"/><stop offset=".03" stop-color="#3e3f40"/><stop offset=".32" stop-color="#d9dadb"/><stop offset=".33" stop-color="#d5d6d7"/><stop offset=".48" stop-color="#a4a6a7"/><stop offset=".54" stop-color="#a8a8a8"/><stop offset=".59" stop-color="#8e8e8e"/><stop offset=".68" stop-color="#747577"/><stop offset=".7" stop-color="#707072"/><stop offset=".74" stop-color="#686868"/><stop offset=".85" stop-color="#939393"/><stop offset=".93" stop-color="#5b5b5b"/><stop offset="1" stop-color="#373839"/></linearGradient><linearGradient id="k" x1="438.41" y1="-213.22" x2="448.31" y2="-207.78" gradientTransform="translate(-386.42 217.26)" xlink:href="#e"/><linearGradient id="l" x1="438.85" y1="-219.31" x2="459.71" y2="-202.87" gradientTransform="translate(-393.4 224.24)" gradientUnits="userSpaceOnUse"><stop offset=".08" stop-color="#6a6c6e"/><stop offset=".1" stop-color="#3e3f40"/><stop offset=".27" stop-color="#d9dadb"/><stop offset=".28" stop-color="#d6d7d8"/><stop offset=".37" stop-color="#a4a6a7"/><stop offset=".41" stop-color="#a8a8a8"/><stop offset=".49" stop-color="#8e8e8e"/><stop offset=".68" stop-color="#747577"/><stop offset=".7" stop-color="#707172"/><stop offset=".74" stop-color="#686868"/><stop offset=".82" stop-color="#939393"/><stop offset=".93" stop-color="#5b5b5b"/><stop offset="1" stop-color="#373839"/></linearGradient><linearGradient id="m" x1="454.24" y1="-212.22" x2="472.56" y2="-203.92" gradientTransform="translate(-400.87 231.71)" gradientUnits="userSpaceOnUse"><stop offset="0" stop-color="#3e3f40"/><stop offset=".05" stop-color="#6a6c6e"/><stop offset=".2" stop-color="#939393"/><stop offset=".31" stop-color="#d9dadb"/><stop offset=".37" stop-color="#a4a6a7"/><stop offset=".41" stop-color="#a8a8a8"/><stop offset=".49" stop-color="#8e8e8e"/><stop offset=".68" stop-color="#747577"/><stop offset=".7" stop-color="#707172"/><stop offset=".74" stop-color="#686868"/><stop offset=".93" stop-color="#5b5b5b"/><stop offset="1" stop-color="#373839"/></linearGradient><linearGradient id="n" x1="52.86" y1="1.52" x2="52.86" y2="25.92" gradientTransform="matrix(1, 0, 0, 1, 0, 0)" gradientUnits="userSpaceOnUse"><stop offset="0" stop-color="#6a6c6e"/><stop offset=".03" stop-color="#3e3f40"/><stop offset=".32" stop-color="#d9dadb"/><stop offset=".34" stop-color="#d5d6d7"/><stop offset=".61" stop-color="#a4a6a7"/><stop offset=".63" stop-color="#9d9e9f"/><stop offset=".69" stop-color="#919292"/><stop offset=".75" stop-color="#8e8e8e"/><stop offset=".93" stop-color="#5b5b5b"/><stop offset="1" stop-color="#373839"/></linearGradient><linearGradient id="o" x1="438.41" y1="-309.78" x2="448.31" y2="-304.34" gradientTransform="translate(-426.66 -301.43) scale(1 -1)" xlink:href="#e"/><linearGradient id="p" x1="438.85" y1="-315.87" x2="459.71" y2="-299.43" gradientTransform="translate(-433.64 -294.45) scale(1 -1)" xlink:href="#l"/><linearGradient id="q" x1="454.24" y1="-308.78" x2="472.56" y2="-300.48" gradientTransform="translate(-441.11 -286.98) scale(1 -1)" xlink:href="#m"/><linearGradient id="r" x1="149.42" y1="1.52" x2="149.42" y2="25.92" gradientTransform="translate(-130.71 27.94) scale(1 -1)" xlink:href="#n"/><linearGradient id="s" x1="260.98" y1="-571.34" x2="270.88" y2="-565.91" gradientTransform="translate(-236.76 -531.97) scale(1 -1)" xlink:href="#e"/><linearGradient id="t" x1="261.42" y1="-577.43" x2="282.29" y2="-560.99" gradientTransform="translate(-236.76 -531.97) scale(1 -1)" xlink:href="#l"/><linearGradient id="u" x1="276.81" y1="-570.34" x2="295.13" y2="-562.04" gradientTransform="translate(-236.76 -531.97) scale(1 -1)" xlink:href="#m"/><linearGradient id="v" x1="410.99" y1="-173.84" x2="410.99" y2="-153.49" gradientTransform="translate(-375.07 -129.28) scale(1 -1)" xlink:href="#n"/><linearGradient id="w" x1="-106.92" y1="-292.46" x2="-187.25" y2="-292.46" gradientTransform="translate(209.07 305.63)" gradientUnits="userSpaceOnUse"><stop offset="0" stop-color="#a4a6a7"/><stop offset=".02" stop-color="#b1b3b4"/><stop offset=".05" stop-color="#c7c8c9"/><stop offset=".08" stop-color="#d4d5d6"/><stop offset=".11" stop-color="#d9dadb"/><stop offset=".12" stop-color="#d7d8d9"/><stop offset=".41" stop-color="#a8a8a8"/><stop offset=".7" stop-color="#8e8e8e"/><stop offset=".71" stop-color="#747577"/><stop offset=".72" stop-color="#707072"/><stop offset=".74" stop-color="#686868"/><stop offset=".75" stop-color="#7a7a7a"/><stop offset=".76" stop-color="#888"/><stop offset=".77" stop-color="#909090"/><stop offset=".79" stop-color="#939393"/><stop offset=".94" stop-color="#e6e6e6"/><stop offset="1" stop-color="#373839"/></linearGradient><linearGradient id="x" x1="-175.72" y1="-296.42" x2="-170.54" y2="-288.02" gradientTransform="translate(209.07 305.63)" gradientUnits="userSpaceOnUse"><stop offset="0" stop-color="#3e3f40"/><stop offset=".08" stop-color="#6a6c6e"/><stop offset=".28" stop-color="#999"/><stop offset=".37" stop-color="#a4a6a7"/><stop offset=".41" stop-color="#a8a8a8"/><stop offset=".49" stop-color="#8e8e8e"/><stop offset=".68" stop-color="#747577"/><stop offset=".7" stop-color="#707072"/><stop offset=".74" stop-color="#686868"/><stop offset=".82" stop-color="#939393"/><stop offset=".93" stop-color="#5b5b5b"/><stop offset="1" stop-color="#373839"/></linearGradient><radialGradient id="y" cx="-174.01" cy="-293.47" fx="-174.01" fy="-293.47" r="4.7" gradientTransform="translate(209.07 305.63)" gradientUnits="userSpaceOnUse"><stop offset="0" stop-color="#fff"/><stop offset=".12" stop-color="#fdfdfd"/><stop offset=".16" stop-color="#f6f6f6"/><stop offset=".19" stop-color="#eaebeb"/><stop offset=".22" stop-color="#d9dadb"/><stop offset=".22" stop-color="#d9dadb"/><stop offset=".22" stop-color="#d7d8d9"/><stop offset=".41" stop-color="#a8a8a8"/><stop offset=".49" stop-color="#8e8e8e"/><stop offset=".68" stop-color="#747577"/><stop offset=".7" stop-color="#707072"/><stop offset=".74" stop-color="#686868"/><stop offset=".82" stop-color="#939393"/><stop offset=".93" stop-color="#5b5b5b"/><stop offset="1" stop-color="#373839"/></radialGradient><linearGradient id="a`" x1="-135.45" y1="-272.52" x2="-135.45" y2="-303.28" gradientTransform="translate(209.07 305.63)" gradientUnits="userSpaceOnUse"><stop offset=".05" stop-color="#8f96b0" stop-opacity=".4"/><stop offset=".49" stop-color="#dce3f2" stop-opacity=".6"/><stop offset=".49" stop-color="#dbe2f2" stop-opacity=".56"/><stop offset=".51" stop-color="#d7dff2" stop-opacity=".32"/><stop offset=".52" stop-color="#d5dcf2" stop-opacity=".15"/><stop offset=".52" stop-color="#d3dbf2" stop-opacity=".04"/><stop offset=".53" stop-color="#d3dbf2" stop-opacity="0"/><stop offset=".53" stop-color="#d0d8f2" stop-opacity="0"/><stop offset=".57" stop-color="#cfd7f2" stop-opacity="0"/><stop offset=".6" stop-color="#cfd7f2" stop-opacity=".03"/><stop offset=".64" stop-color="#cfd7f2" stop-opacity=".11"/><stop offset=".69" stop-color="#d0d8f2" stop-opacity=".24"/><stop offset=".73" stop-color="#d1d9f2" stop-opacity=".4"/><stop offset=".76" stop-color="#dde5f6" stop-opacity=".37"/><stop offset=".79" stop-color="#f5fcff" stop-opacity=".3"/><stop offset=".8" stop-color="#cdd2d4" stop-opacity=".22"/><stop offset=".81" stop-color="#676767" stop-opacity="0"/><stop offset=".81" stop-color="#666" stop-opacity="0"/><stop offset=".81" stop-color="#949494" stop-opacity=".1"/><stop offset=".82" stop-color="#d8d8d8" stop-opacity=".24"/><stop offset=".82" stop-color="#f2f2f2" stop-opacity=".3"/><stop offset=".83" stop-color="#cdced3" stop-opacity=".22"/><stop offset=".84" stop-color="#898c98" stop-opacity=".06"/><stop offset=".84" stop-color="#6f7382" stop-opacity="0"/><stop offset=".86" stop-color="#72788d" stop-opacity="0"/><stop offset=".98" stop-color="#767d97" stop-opacity="0"/></linearGradient></defs><g class="ba"><g id="a"/><g id="b"><g id="c"><g><g><rect class="ae" x="20.12" y="25.17" width="31.61" height="15.3" transform="translate(68.75 -3.1) rotate(90)"/><rect class="ad" x="21.87" y="48.7" width="28.1" height="2.67"/><ellipse class="ax" cx="33.56" cy="48.77" rx="10.67" ry=".07"/><path class="bb" d="M43.59,43.79c0-2.73-12.41-3.6-15.32-3.02v-1.43h15.32v4.45Z"/></g><g><rect class="ag" x="3.05" y="6.4" width="65.75" height="15.3"/><rect class="af" x="69.12" width="2.67" height="28.1"/><ellipse class="ax" cx="69.12" cy="11.59" rx=".07" ry="10.67"/><rect class="an" x=".07" width="2.67" height="28.1"/><ellipse class="ax" cx=".07" cy="11.59" rx=".07" ry="10.67"/></g><rect class="am" x="19.68" y="0" width="32.21" height="28.1" rx=".83" ry=".83"/><path class="ap" d="M46.81,28.19v5.08H25.04v-5.08s0-9.12,10.88-9.12,10.88,9.12,10.88,9.12Z"/><g><g><rect class="ao" x="53.78" y="4.07" width="4.26" height="4.25" rx=".21" ry=".21" transform="translate(62.1 -49.71) rotate(90)"/><rect class="ar" x="51.2" y="11.05" width="9.42" height="4.25" rx=".18" ry=".18" transform="translate(69.08 -42.74) rotate(90)"/><rect class="aq" x="53.33" y="18.52" width="5.15" height="4.25" rx=".17" ry=".17" transform="translate(76.55 -35.27) rotate(90)"/></g><path class="ay" d="M55.75,4.09c.52-.02,1.04-.03,1.56-.03,.24,0,.58-.06,.74,.24,.08,.29,.03,.53,.04,.79-.02,1.04,0,2.08-.05,3.12-.04-1.04-.03-2.08-.05-3.12,0-.25,.03-.54-.02-.76-.11-.24-.41-.21-.66-.21-.52,0-1.04-.01-1.56-.03,0,0,.52,.02,0,0Z"/></g><path class="as" d="M52.05,.92h.36c.7,0,1.27,.57,1.27,1.27V25.75c0,.7-.57,1.27-1.27,1.27h-.36V.92h0Z"/><g><g><g><rect class="ai" x="13.54" y="4.07" width="4.26" height="4.25" rx=".21" ry=".21" transform="translate(21.86 -9.47) rotate(90)"/><rect class="ah" x="10.96" y="11.05" width="9.42" height="4.25" rx=".18" ry=".18" transform="translate(28.84 -2.5) rotate(90)"/><rect class="ak" x="13.09" y="18.52" width="5.15" height="4.25" rx=".17" ry=".17" transform="translate(36.31 4.97) rotate(90)"/></g><path class="ay" d="M15.83,4.09c-.52,.02-1.04,.03-1.56,.03-.25,0-.55-.03-.66,.21-.05,.21,0,.51-.02,.76-.02,1.04,0,2.08-.05,3.12-.04-1.04-.03-2.08-.05-3.12,.02-.27-.03-.51,.04-.79,.15-.29,.5-.24,.74-.24,.52,0,1.04,.01,1.56,.03,0,0-.52-.02,0,0Z"/></g><path class="al" d="M17.9,.92h.36c.7,0,1.27,.57,1.27,1.27V25.75c0,.7-.57,1.27-1.27,1.27h-.36V.92h0Z" transform="translate(37.43 27.94) rotate(180)"/></g><g><g><g><rect class="aj" x="26.02" y="35.1" width="4.26" height="4.25" rx=".21" ry=".21"/><rect class="ab" x="30.41" y="35.1" width="9.42" height="4.25" rx=".18" ry=".18"/><rect class="aa" x="40.02" y="35.1" width="5.15" height="4.25" rx=".17" ry=".17"/></g><path class="ay" d="M26.05,37.06c.02,.52,.03,1.04,.03,1.56,0,.25-.03,.55,.21,.66,.21,.05,.51,0,.76,.02,1.04,.02,2.08,0,3.12,.05-1.04,.04-2.08,.03-3.12,.05-.27-.02-.51,.03-.79-.04-.29-.15-.24-.5-.24-.74,0-.52,.01-1.04,.03-1.56,0,0-.02,.52,0,0Z"/></g><path class="ac" d="M35.11,23.29h.36c.7,0,1.27,.57,1.27,1.27v19.22c0,.7-.57,1.27-1.27,1.27h-.36V23.29h0Z" transform="translate(70.1 -1.75) rotate(90)"/></g><ellipse class="ax" cx="19.68" cy="13.17" rx=".07" ry="10.67"/><ellipse class="ax" cx="39.66" cy="8.7" rx="6.8" ry=".07"/><path class="bb" d="M10.11,21.7c-5.01,0-6.47-14.75-5.63-15.32h-1.43v15.32h7.06Z"/><path class="bb" d="M62.49,21.71c-2.73,0-3.6-12.41-3.02-15.32h-1.43v15.32h4.45Z"/><path class="bb" d="M32,17.37s.7,1.53,1.24,1.93,4.13,.69,5.99,1.34,4.45,1.33,6.5,3.51c4.21,.28,6.16,1.03,6.16,1.03l.04-.75,1.79,.06,.06-1.26h4.25v-6.99l-26.04,1.14Z"/><g><path class="au" d="M32.39,8.7H97.68c.86,0,1.55,.7,1.55,1.55v5.83c0,.86-.7,1.55-1.55,1.55H32.39c-.97,0-1.75-.79-1.75-1.75v-5.43c0-.97,.79-1.75,1.75-1.75Z"/><polygon class="bb" points="38.6 10.26 37.8 9.7 33.79 16.65 34.45 16.89 39.38 17.64 41.64 13.67 38.6 10.26"/><polygon class="at" points="37.8 9.7 33.79 9.7 31.78 13.17 33.79 16.65 37.8 16.65 39.81 13.17 37.8 9.7"/><circle class="av" cx="35.8" cy="13.17" r="2.91"/><path class="b`" d="M47.66,18.11h50.27c1.14,0,2.06-.92,2.06-2.06v-5.75c0-1.14-.92-2.06-2.06-2.06H47.66c-.23,0-.41,.19-.41,.41v9.05c0,.23,.19,.41,.41,.41Z"/><path class="aw" d="M47.66,18.11h50.27c1.14,0,2.06-.92,2.06-2.06v-5.75c0-1.14-.92-2.06-2.06-2.06H47.66c-.23,0-.41,.19-.41,.41v9.05c0,.23,.19,.41,.41,.41Z"/></g></g></g></g></g></svg>