<?xml version="1.0" encoding="UTF-8"?><svg xmlns="http://www.w3.org/2000/svg" xmlns:xlink="http://www.w3.org/1999/xlink" viewBox="0 0 71.79 102.46"><defs><style>.aa{fill:url(#u);}.ab{fill:url(#t);}.ac{fill:url(#v);}.ad{fill:url(#e);}.ae{fill:url(#d);}.af{fill:url(#g);}.ag{fill:url(#f);}.ah{fill:url(#p);}.ai{fill:url(#o);}.aj{fill:url(#s);}.ak{fill:url(#q);}.al{fill:url(#r);}.am{fill:url(#i);}.an{fill:url(#h);}.ao{fill:url(#k);}.ap{fill:url(#j);}.aq{fill:url(#m);}.ar{fill:url(#l);}.as{fill:url(#n);}.at{fill:url(#x);}.au{fill:url(#w);}.av{fill:url(#y);}.aw{fill:url(#a`);}.ax{fill:#ededed;}.ay{fill:#fff;}.b`{fill:#2186f4;}.ba{isolation:isolate;}.bb{mix-blend-mode:multiply;opacity:.3;}</style><linearGradient id="d" x1="836.29" y1="-.49" x2="836.29" y2="14.81" gradientTransform="translate(872.23 25.77) rotate(-180)" gradientUnits="userSpaceOnUse"><stop offset="0" stop-color="#6a6c6e"/><stop offset=".03" stop-color="#3e3f40"/><stop offset=".32" stop-color="#d9dadb"/><stop offset=".33" stop-color="#d5d6d7"/><stop offset=".48" stop-color="#a4a6a7"/><stop offset=".54" stop-color="#a8a8a8"/><stop offset=".59" stop-color="#8e8e8e"/><stop offset=".68" stop-color="#747577"/><stop offset=".7" stop-color="#707072"/><stop offset=".74" stop-color="#686868"/><stop offset=".82" stop-color="#939393"/><stop offset=".93" stop-color="#5b5b5b"/><stop offset="1" stop-color="#373839"/></linearGradient><linearGradient id="e" x1="1132.89" y1="1591.48" x2="1132.89" y2="1619.58" gradientTransform="translate(-1569.59 -1131.49) rotate(90) scale(1 -1)" gradientUnits="userSpaceOnUse"><stop offset="0" stop-color="#3e3f40"/><stop offset=".08" stop-color="#6a6c6e"/><stop offset=".27" stop-color="#d9dadb"/><stop offset=".28" stop-color="#d6d7d8"/><stop offset=".37" stop-color="#a4a6a7"/><stop offset=".41" stop-color="#a8a8a8"/><stop offset=".49" stop-color="#8e8e8e"/><stop offset=".68" stop-color="#747577"/><stop offset=".7" stop-color="#707172"/><stop offset=".74" stop-color="#686868"/><stop offset=".82" stop-color="#939393"/><stop offset=".93" stop-color="#5b5b5b"/><stop offset="1" stop-color="#373839"/></linearGradient><linearGradient id="f" x1="-121.85" y1="124.61" x2="-121.85" y2="139.91" gradientTransform="translate(-85.92 169.65) rotate(180)" xlink:href="#d"/><linearGradient id="g" x1="2455.28" y1="-581.39" x2="2455.28" y2="-553.29" gradientTransform="translate(-2453.88 -529.95) scale(1 -1)" xlink:href="#e"/><linearGradient id="h" x1="2524.34" y1="-581.39" x2="2524.34" y2="-553.29" gradientTransform="translate(-2453.88 -529.95) scale(1 -1)" xlink:href="#e"/><linearGradient id="i" x1="-121.71" y1="118.21" x2="-121.71" y2="146.31" gradientTransform="translate(-85.63 169.65) rotate(180)" xlink:href="#d"/><linearGradient id="j" x1="-471.63" y1="-2670.92" x2="-471.63" y2="-2649.15" gradientTransform="translate(-2623.97 496.9) rotate(90)" gradientUnits="userSpaceOnUse"><stop offset="0" stop-color="#6a6c6e"/><stop offset=".03" stop-color="#3e3f40"/><stop offset=".32" stop-color="#d9dadb"/><stop offset=".33" stop-color="#d5d6d7"/><stop offset=".48" stop-color="#a4a6a7"/><stop offset=".54" stop-color="#a8a8a8"/><stop offset=".59" stop-color="#8e8e8e"/><stop offset=".68" stop-color="#747577"/><stop offset=".7" stop-color="#707072"/><stop offset=".74" stop-color="#686868"/><stop offset=".85" stop-color="#939393"/><stop offset=".93" stop-color="#5b5b5b"/><stop offset="1" stop-color="#373839"/></linearGradient><linearGradient id="k" x1="-199.08" y1="-747.9" x2="-189.18" y2="-742.46" gradientTransform="translate(211.11 790.99)" xlink:href="#e"/><linearGradient id="l" x1="-198.64" y1="-753.98" x2="-177.77" y2="-737.55" gradientTransform="translate(204.13 784.01)" gradientUnits="userSpaceOnUse"><stop offset=".08" stop-color="#6a6c6e"/><stop offset=".1" stop-color="#3e3f40"/><stop offset=".27" stop-color="#d9dadb"/><stop offset=".28" stop-color="#d6d7d8"/><stop offset=".37" stop-color="#a4a6a7"/><stop offset=".41" stop-color="#a8a8a8"/><stop offset=".49" stop-color="#8e8e8e"/><stop offset=".68" stop-color="#747577"/><stop offset=".7" stop-color="#707172"/><stop offset=".74" stop-color="#686868"/><stop offset=".82" stop-color="#939393"/><stop offset=".93" stop-color="#5b5b5b"/><stop offset="1" stop-color="#373839"/></linearGradient><linearGradient id="m" x1="-183.25" y1="-746.89" x2="-164.92" y2="-738.6" gradientTransform="translate(196.66 776.54)" gradientUnits="userSpaceOnUse"><stop offset="0" stop-color="#3e3f40"/><stop offset=".05" stop-color="#6a6c6e"/><stop offset=".2" stop-color="#939393"/><stop offset=".31" stop-color="#d9dadb"/><stop offset=".37" stop-color="#a4a6a7"/><stop offset=".41" stop-color="#a8a8a8"/><stop offset=".49" stop-color="#8e8e8e"/><stop offset=".68" stop-color="#747577"/><stop offset=".7" stop-color="#707172"/><stop offset=".74" stop-color="#686868"/><stop offset=".93" stop-color="#5b5b5b"/><stop offset="1" stop-color="#373839"/></linearGradient><linearGradient id="n" x1="605.73" y1="-933.17" x2="605.73" y2="-908.77" gradientTransform="translate(-586.73 958.19)" gradientUnits="userSpaceOnUse"><stop offset="0" stop-color="#6a6c6e"/><stop offset=".03" stop-color="#3e3f40"/><stop offset=".32" stop-color="#d9dadb"/><stop offset=".34" stop-color="#d5d6d7"/><stop offset=".61" stop-color="#a4a6a7"/><stop offset=".63" stop-color="#9d9e9f"/><stop offset=".69" stop-color="#919292"/><stop offset=".75" stop-color="#8e8e8e"/><stop offset=".93" stop-color="#5b5b5b"/><stop offset="1" stop-color="#373839"/></linearGradient><linearGradient id="o" x1="-199.08" y1="-54.12" x2="-189.18" y2="-48.69" gradientTransform="translate(251.35 -6.72) scale(1 -1)" xlink:href="#e"/><linearGradient id="p" x1="-198.64" y1="-60.21" x2="-177.77" y2="-43.77" gradientTransform="translate(244.37 -13.7) scale(1 -1)" xlink:href="#l"/><linearGradient id="q" x1="-183.25" y1="-53.12" x2="-164.92" y2="-44.82" gradientTransform="translate(236.9 -21.17) scale(1 -1)" xlink:href="#m"/><linearGradient id="r" x1="-88.05" y1="-933.17" x2="-88.05" y2="-908.77" gradientTransform="translate(141.2 -883.25) scale(1 -1)" xlink:href="#n"/><linearGradient id="s" x1="813.85" y1="84.33" x2="823.75" y2="89.76" gradientTransform="translate(-774.05 100.7) scale(1 -1)" xlink:href="#e"/><linearGradient id="t" x1="814.29" y1="78.24" x2="835.15" y2="94.68" gradientTransform="translate(-788.01 100.7) scale(1 -1)" xlink:href="#l"/><linearGradient id="u" x1="829.68" y1="85.33" x2="848" y2="93.63" gradientTransform="translate(-802.95 100.7) scale(1 -1)" xlink:href="#m"/><linearGradient id="v" x1="-226.5" y1="81.82" x2="-226.5" y2="102.17" gradientTransform="translate(262.44 109.47) scale(1 -1)" xlink:href="#n"/><linearGradient id="w" x1="845.95" y1="-36.8" x2="765.62" y2="-36.8" gradientTransform="translate(-772.67 104.21)" gradientUnits="userSpaceOnUse"><stop offset="0" stop-color="#a4a6a7"/><stop offset=".02" stop-color="#b1b3b4"/><stop offset=".05" stop-color="#c7c8c9"/><stop offset=".08" stop-color="#d4d5d6"/><stop offset=".11" stop-color="#d9dadb"/><stop offset=".12" stop-color="#d7d8d9"/><stop offset=".41" stop-color="#a8a8a8"/><stop offset=".7" stop-color="#8e8e8e"/><stop offset=".71" stop-color="#747577"/><stop offset=".72" stop-color="#707072"/><stop offset=".74" stop-color="#686868"/><stop offset=".75" stop-color="#7a7a7a"/><stop offset=".76" stop-color="#888"/><stop offset=".77" stop-color="#909090"/><stop offset=".79" stop-color="#939393"/><stop offset=".94" stop-color="#e6e6e6"/><stop offset="1" stop-color="#373839"/></linearGradient><linearGradient id="x" x1="777.15" y1="-40.77" x2="782.33" y2="-32.36" gradientTransform="translate(-.74 -741.33) rotate(90)" gradientUnits="userSpaceOnUse"><stop offset="0" stop-color="#3e3f40"/><stop offset=".08" stop-color="#6a6c6e"/><stop offset=".28" stop-color="#999"/><stop offset=".37" stop-color="#a4a6a7"/><stop offset=".41" stop-color="#a8a8a8"/><stop offset=".49" stop-color="#8e8e8e"/><stop offset=".68" stop-color="#747577"/><stop offset=".7" stop-color="#707072"/><stop offset=".74" stop-color="#686868"/><stop offset=".82" stop-color="#939393"/><stop offset=".93" stop-color="#5b5b5b"/><stop offset="1" stop-color="#373839"/></linearGradient><radialGradient id="y" cx="778.87" cy="-37.81" fx="778.87" fy="-37.81" r="4.7" gradientTransform="translate(-.74 -741.33) rotate(90)" gradientUnits="userSpaceOnUse"><stop offset="0" stop-color="#fff"/><stop offset=".12" stop-color="#fdfdfd"/><stop offset=".16" stop-color="#f6f6f6"/><stop offset=".19" stop-color="#eaebeb"/><stop offset=".22" stop-color="#d9dadb"/><stop offset=".22" stop-color="#d9dadb"/><stop offset=".22" stop-color="#d7d8d9"/><stop offset=".41" stop-color="#a8a8a8"/><stop offset=".49" stop-color="#8e8e8e"/><stop offset=".68" stop-color="#747577"/><stop offset=".7" stop-color="#707072"/><stop offset=".74" stop-color="#686868"/><stop offset=".82" stop-color="#939393"/><stop offset=".93" stop-color="#5b5b5b"/><stop offset="1" stop-color="#373839"/></radialGradient><linearGradient id="a`" x1="817.42" y1="-16.86" x2="817.42" y2="-47.62" gradientTransform="translate(-.74 -741.33) rotate(90)" gradientUnits="userSpaceOnUse"><stop offset=".05" stop-color="#8f96b0" stop-opacity=".4"/><stop offset=".49" stop-color="#dce3f2" stop-opacity=".6"/><stop offset=".49" stop-color="#dbe2f2" stop-opacity=".56"/><stop offset=".51" stop-color="#d7dff2" stop-opacity=".32"/><stop offset=".52" stop-color="#d5dcf2" stop-opacity=".15"/><stop offset=".52" stop-color="#d3dbf2" stop-opacity=".04"/><stop offset=".53" stop-color="#d3dbf2" stop-opacity="0"/><stop offset=".53" stop-color="#d0d8f2" stop-opacity="0"/><stop offset=".57" stop-color="#cfd7f2" stop-opacity="0"/><stop offset=".6" stop-color="#cfd7f2" stop-opacity=".03"/><stop offset=".64" stop-color="#cfd7f2" stop-opacity=".11"/><stop offset=".69" stop-color="#d0d8f2" stop-opacity=".24"/><stop offset=".73" stop-color="#d1d9f2" stop-opacity=".4"/><stop offset=".76" stop-color="#dde5f6" stop-opacity=".37"/><stop offset=".79" stop-color="#f5fcff" stop-opacity=".3"/><stop offset=".8" stop-color="#cdd2d4" stop-opacity=".22"/><stop offset=".81" stop-color="#676767" stop-opacity="0"/><stop offset=".81" stop-color="#666" stop-opacity="0"/><stop offset=".81" stop-color="#949494" stop-opacity=".1"/><stop offset=".82" stop-color="#d8d8d8" stop-opacity=".24"/><stop offset=".82" stop-color="#f2f2f2" stop-opacity=".3"/><stop offset=".83" stop-color="#cdced3" stop-opacity=".22"/><stop offset=".84" stop-color="#898c98" stop-opacity=".06"/><stop offset=".84" stop-color="#6f7382" stop-opacity="0"/><stop offset=".86" stop-color="#72788d" stop-opacity="0"/><stop offset=".98" stop-color="#767d97" stop-opacity="0"/></linearGradient></defs><g class="ba"><g id="a"/><g id="b"><g id="c"><g><g><rect class="ae" x="20.13" y="10.96" width="31.61" height="15.3" transform="translate(17.33 54.55) rotate(-90)"/><rect class="ad" x="21.89" y=".07" width="28.1" height="2.67"/><ellipse class="ax" cx="33.16" cy=".07" rx="10.67" ry=".07"/><path class="bb" d="M43.45,8.85c0-3.65-12.41-4.82-15.32-4.04v-1.91h15.32v5.95Z"/></g><g><rect class="ag" x="3.05" y="29.74" width="65.75" height="15.3" transform="translate(71.86 74.78) rotate(-180)"/><rect class="af" x=".07" y="23.34" width="2.67" height="28.1"/><ellipse class="ax" cx=".07" cy="34.42" rx=".07" ry="10.67"/><rect class="an" x="69.12" y="23.34" width="2.67" height="28.1"/><ellipse class="ax" cx="69.12" cy="34.25" rx=".07" ry="10.67"/></g><rect class="am" x="19.97" y="23.34" width="32.21" height="28.1" rx=".83" ry=".83" transform="translate(72.15 74.78) rotate(-180)"/><path class="bb" d="M40.42,34.23l1.53,.48c.77,.24,1.34,.88,1.5,1.67,.25,1.28,.71,3.6,1.5,7.27,1.23,5.75,2.16,7.78,2.16,7.78h-7.56l.87-17.2Z"/><path class="ap" d="M25.06,23.25v-5.08h21.77v5.08s0,9.12-10.88,9.12-10.88-9.12-10.88-9.12Z"/><g><g><rect class="ao" x="13.82" y="43.12" width="4.26" height="4.25" rx=".21" ry=".21" transform="translate(-29.29 61.2) rotate(-90)"/><rect class="ar" x="11.24" y="36.14" width="9.42" height="4.25" rx=".18" ry=".18" transform="translate(-22.31 54.22) rotate(-90)"/><rect class="aq" x="13.38" y="28.67" width="5.15" height="4.25" rx=".17" ry=".17" transform="translate(-14.84 46.75) rotate(-90)"/></g><path class="ay" d="M16.12,47.35c-.52,.02-1.04,.03-1.56,.03-.24,0-.58,.06-.74-.24-.08-.29-.03-.53-.04-.79,.02-1.04,0-2.08,.05-3.12,.04,1.04,.03,2.08,.05,3.12,0,.25-.03,.54,.02,.76,.11,.24,.41,.21,.66,.21,.52,0,1.04,.01,1.56,.03,0,0-.52-.02,0,0Z"/></g><path class="as" d="M18.18,24.42h.36c.7,0,1.27,.57,1.27,1.27v23.56c0,.7-.57,1.27-1.27,1.27h-.36V24.42h0Z" transform="translate(38 74.94) rotate(-180)"/><g><g><g><rect class="ai" x="54.06" y="43.12" width="4.26" height="4.25" rx=".21" ry=".21" transform="translate(10.95 101.44) rotate(-90)"/><rect class="ah" x="51.48" y="36.14" width="9.42" height="4.25" rx=".18" ry=".18" transform="translate(17.93 94.46) rotate(-90)"/><rect class="ak" x="53.62" y="28.67" width="5.15" height="4.25" rx=".17" ry=".17" transform="translate(25.4 86.99) rotate(-90)"/></g><path class="ay" d="M56.03,47.35c.52-.02,1.04-.03,1.56-.03,.25,0,.55,.03,.66-.21,.05-.21,0-.51,.02-.76,.02-1.04,0-2.08,.05-3.12,.04,1.04,.03,2.08,.05,3.12-.02,.27,.03,.51-.04,.79-.15,.29-.5,.24-.74,.24-.52,0-1.04-.01-1.56-.03,0,0,.52,.02,0,0Z"/></g><path class="al" d="M52.33,24.42h.36c.7,0,1.27,.57,1.27,1.27v23.56c0,.7-.57,1.27-1.27,1.27h-.36V24.42h0Z"/></g><g><g><g><rect class="aj" x="41.58" y="12.1" width="4.26" height="4.25" rx=".21" ry=".21" transform="translate(87.43 28.44) rotate(-180)"/><rect class="ab" x="32.03" y="12.1" width="9.42" height="4.25" rx=".18" ry=".18" transform="translate(73.48 28.44) rotate(-180)"/><rect class="aa" x="26.69" y="12.1" width="5.15" height="4.25" rx=".17" ry=".17" transform="translate(58.54 28.44) rotate(-180)"/></g><path class="ay" d="M45.82,14.38c-.02-.52-.03-1.04-.03-1.56,0-.25,.03-.55-.21-.66-.21-.05-.51,0-.76-.02-1.04-.02-2.08,0-3.12-.05,1.04-.04,2.08-.03,3.12-.05,.27,.02,.51-.03,.79,.04,.29,.15,.24,.5,.24,.74,0,.52-.01,1.04-.03,1.56,0,0,.02-.52,0,0Z"/></g><path class="ac" d="M35.12,6.38h.36c.7,0,1.27,.57,1.27,1.27V26.88c0,.7-.57,1.27-1.27,1.27h-.36V6.38h0Z" transform="translate(18.67 53.2) rotate(-90)"/></g><g><path class="au" d="M3.52,62.94H68.81c.86,0,1.55,.7,1.55,1.55v5.83c0,.86-.7,1.55-1.55,1.55H3.52c-.97,0-1.75-.79-1.75-1.75v-5.43c0-.97,.79-1.75,1.75-1.75Z" transform="translate(103.47 31.34) rotate(90)"/><polygon class="bb" points="38.98 41.07 39.54 40.27 32.59 36.26 32.35 36.92 31.6 41.85 35.57 44.11 38.98 41.07"/><polygon class="at" points="39.54 40.27 39.54 36.26 36.07 34.25 32.59 36.26 32.59 40.27 36.07 42.28 39.54 40.27"/><circle class="av" cx="36.07" cy="38.27" r="2.91"/><path class="b`" d="M31.13,50.13v50.27c0,1.14,.92,2.06,2.06,2.06h5.75c1.14,0,2.06-.92,2.06-2.06V50.13c0-.23-.19-.41-.41-.41h-9.05c-.23,0-.41,.19-.41,.41Z"/><path class="aw" d="M31.13,50.13v50.27c0,1.14,.92,2.06,2.06,2.06h5.75c1.14,0,2.06-.92,2.06-2.06V50.13c0-.23-.19-.41-.41-.41h-9.05c-.23,0-.41,.19-.41,.41Z"/></g><ellipse class="ax" cx="20.09" cy="35.33" rx=".07" ry="10.67"/><ellipse class="ax" cx="31.6" cy="41.18" rx=".07" ry="6.8"/><path class="bb" d="M9.8,45.13c-5.01,0-6.47-14.75-5.63-15.32h-1.43v15.32h7.06Z"/><path class="bb" d="M62.82,45.05c-2.73,0-3.6-12.41-3.02-15.32h-1.43v15.32h4.45Z"/></g></g></g></g></svg>